<svg width="1440" height="768" viewBox="0 0 1440 768" fill="none" xmlns="http://www.w3.org/2000/svg">
    <rect width="1440" height="768" fill="white" />
    <mask id="mask0_0_1" style="mask-type:luminance" maskUnits="userSpaceOnUse" x="1066" y="349"
        width="364" height="362">
        <path d="M1427.53 710.716L1429.43 350.907L1068.9 349L1067 708.809L1427.53 710.716Z"
            fill="white" />
    </mask>
    <g mask="url(#mask0_0_1)">
        <path
            d="M1376.48 688.077C1373.82 688.063 1371.67 690.174 1371.65 692.82C1371.64 695.438 1373.77 697.599 1376.43 697.613C1378.79 697.625 1380.77 695.927 1381.17 693.669L1405.75 693.799C1406 693.801 1406.22 693.692 1406.36 693.527L1423.74 676.449C1423.94 676.257 1423.99 676.01 1424 675.817L1424.5 579.636C1424.51 579.361 1424.37 579.167 1424.23 579.028L1394.75 549.439L1395.2 465.274C1396.59 464.923 1397.65 463.661 1397.65 462.145C1397.66 460.382 1396.2 458.913 1394.42 458.904C1392.62 458.894 1391.14 460.347 1391.13 462.111C1391.13 463.627 1392.17 464.9 1393.56 465.265L1393.11 549.678C1393.11 549.844 1393.14 550.037 1393.25 550.203C1393.28 550.258 1393.3 550.286 1393.36 550.341L1422.87 579.958L1422.36 675.532L1405.43 692.172L1381.2 692.043C1380.8 689.809 1378.84 688.09 1376.48 688.077ZM1386.12 513.483C1386.13 510.865 1383.98 508.704 1381.34 508.69C1378.68 508.676 1376.53 510.814 1376.52 513.432C1376.5 515.775 1378.21 517.768 1380.46 518.166L1380.12 582.323C1380.12 582.543 1380.2 582.737 1380.37 582.875L1409.02 611.661L1408.74 663.582L1395.1 676.987L1355.89 676.779L1308.69 624.938C1308.53 624.744 1308.28 624.66 1308.05 624.659L1242.29 624.311C1241.94 622.931 1240.67 621.905 1239.14 621.897C1237.36 621.887 1235.89 623.313 1235.88 625.104C1235.87 626.868 1237.33 628.336 1239.11 628.345C1240.63 628.354 1241.91 627.341 1242.28 625.937L1307.74 626.283L1354.89 678.069C1354.97 678.18 1355.11 678.263 1355.28 678.347C1355.36 678.375 1355.44 678.375 1355.53 678.376L1395.34 678.586C1395.51 678.615 1395.7 678.588 1395.9 678.479C1395.93 678.424 1395.98 678.397 1396.01 678.369L1410.13 664.499C1410.26 664.362 1410.38 664.142 1410.38 663.922L1410.66 611.394C1410.68 611.229 1410.63 611.036 1410.52 610.87C1410.49 610.815 1410.46 610.787 1410.41 610.732L1381.76 581.973L1382.1 518.147C1384.35 517.8 1386.1 515.825 1386.12 513.483ZM1272.39 636.872C1273.73 634.592 1272.94 631.694 1270.65 630.359C1268.35 629.024 1265.43 629.78 1264.09 632.06C1262.88 634.093 1263.37 636.631 1265.14 638.102L1263.65 640.629L1230.3 640.453C1229.95 639.073 1228.68 638.019 1227.18 638.011C1225.38 638.001 1223.92 639.454 1223.92 641.246C1223.91 643.009 1225.34 644.478 1227.14 644.487C1228.64 644.495 1229.92 643.455 1230.29 642.079L1264.06 642.257C1264.28 642.286 1264.51 642.205 1264.7 642.013C1264.76 641.958 1264.79 641.903 1264.81 641.848L1266.55 638.936C1268.68 639.719 1271.16 638.905 1272.39 636.872ZM1389.79 664.474C1392.42 664.488 1394.6 662.35 1394.61 659.732C1394.63 657.086 1392.47 654.953 1389.84 654.939C1387.45 654.926 1385.47 656.624 1385.07 658.855L1361.35 658.729L1308.16 605.34C1307.96 605.146 1307.71 605.09 1307.52 605.116L1286.82 605.007C1286.47 603.599 1285.19 602.573 1283.67 602.565C1281.89 602.556 1280.41 604.008 1280.41 605.772C1280.4 607.563 1281.86 609.004 1283.63 609.014C1285.16 609.022 1286.44 608.009 1286.81 606.633L1307.23 606.741L1360.37 660.074C1360.48 660.158 1360.59 660.268 1360.75 660.324C1360.84 660.352 1360.89 660.353 1360.98 660.353L1385.06 660.48C1385.44 662.715 1387.4 664.461 1389.79 664.474ZM1306.85 689.225C1309.52 689.239 1311.66 687.101 1311.68 684.483C1311.69 681.837 1309.57 679.704 1306.9 679.689C1304.54 679.677 1302.56 681.375 1302.16 683.605L1073.55 682.396C1073.2 681.016 1071.92 679.962 1070.4 679.954C1068.62 679.945 1067.14 681.398 1067.13 683.189C1067.13 684.953 1068.59 686.421 1070.36 686.43C1071.89 686.438 1073.17 685.398 1073.54 684.022L1302.16 685.231C1302.53 687.466 1304.49 689.212 1306.85 689.225ZM1404.11 542.378C1404.1 544.996 1406.25 547.157 1408.89 547.171C1411.52 547.185 1413.7 545.047 1413.71 542.429C1413.72 540.059 1412.01 538.093 1409.74 537.695L1410.69 358.673C1412.11 358.322 1413.14 357.06 1413.15 355.544C1413.16 353.78 1411.72 352.312 1409.92 352.302C1408.14 352.293 1406.66 353.746 1406.65 355.51C1406.65 357.025 1407.67 358.298 1409.08 358.664L1408.13 537.687C1405.85 538.06 1404.12 540.008 1404.11 542.378ZM1348.55 466.24C1346.24 467.551 1345.44 470.44 1346.76 472.735C1347.51 474.006 1348.72 474.839 1350.08 475.067L1349.75 537.984C1349.72 538.204 1349.8 538.453 1349.99 538.647C1350.05 538.675 1350.1 538.73 1350.16 538.758L1365.29 547.547L1365.08 586.873C1365.08 587.039 1365.11 587.232 1365.22 587.398C1365.25 587.453 1365.27 587.481 1365.33 587.536L1394.09 616.433L1393.96 641.456L1369.73 641.328C1369.36 639.094 1367.4 637.375 1365.01 637.362C1362.37 637.348 1360.2 639.459 1360.18 642.104C1360.17 644.722 1362.32 646.884 1364.96 646.897C1367.35 646.91 1369.33 645.212 1369.73 642.954L1394.78 643.087C1395.28 643.089 1395.59 642.705 1395.59 642.292L1395.73 616.111C1395.73 615.835 1395.62 615.614 1395.46 615.475L1366.72 586.634L1366.93 547.087C1366.93 546.756 1366.77 546.507 1366.52 546.396L1351.39 537.579L1351.72 475.103C1352.27 474.996 1352.8 474.806 1353.3 474.533C1355.36 473.331 1356.23 470.911 1355.44 468.757L1375.84 457.207C1376.15 457.043 1376.26 456.768 1376.26 456.493L1376.49 412.564C1377.91 412.213 1378.95 410.951 1378.95 409.435C1378.96 407.671 1377.5 406.203 1375.72 406.193C1373.92 406.184 1372.47 407.637 1372.46 409.401C1372.45 410.916 1373.47 412.19 1374.89 412.555L1374.66 456.016L1354.64 467.375C1353.15 465.603 1350.6 465.066 1348.55 466.24ZM1422.73 710.452C1425.37 710.466 1427.54 708.328 1427.56 705.71C1427.57 703.092 1425.42 700.931 1422.78 700.917C1420.42 700.905 1418.44 702.603 1418.04 704.861L1349.42 704.498L1314.18 663.33C1313.98 663.108 1313.76 663.025 1313.54 663.023L1216.31 662.509C1216.18 661.599 1215.71 660.687 1214.99 659.939C1213.28 658.276 1210.73 658.07 1208.83 659.41L1184.77 635.224C1184.57 635.03 1184.32 634.973 1184.13 634.972L1142.4 634.751C1142.04 633.371 1140.77 632.317 1139.25 632.309C1137.47 632.3 1135.99 633.753 1135.98 635.544C1135.97 637.308 1137.44 638.776 1139.21 638.786C1140.74 638.794 1142.02 637.753 1142.39 636.377L1183.84 636.597L1207.69 660.534C1206.35 662.401 1206.5 664.965 1208.19 666.655C1210.09 668.539 1213.03 668.555 1214.98 666.691C1215.71 665.951 1216.16 665.071 1216.33 664.135L1313.17 664.647L1348.39 705.787C1348.47 705.898 1348.61 706.009 1348.8 706.065C1348.89 706.093 1348.94 706.121 1349.05 706.122L1418.03 706.487C1418.41 708.721 1420.37 710.44 1422.73 710.452Z"
            fill="black" fill-opacity="0.75" />
    </g>
    <mask id="mask1_0_1" style="mask-type:luminance" maskUnits="userSpaceOnUse" x="11" y="57"
        width="326" height="325">
        <path d="M12.7104 57L11.0002 380.288L334.558 382L336.268 58.7117L12.7104 57Z" fill="white" />
    </mask>
    <g mask="url(#mask1_0_1)">
        <path
            d="M58.524 77.3404C60.9146 77.3531 62.8422 75.4566 62.8548 73.0794C62.8672 70.7271 60.9599 68.7855 58.5693 68.7729C56.4526 68.7617 54.6764 70.2875 54.317 72.3162L32.2534 72.1994C32.0293 72.1983 31.8295 72.2962 31.7042 72.4442L16.1084 87.7886C15.9332 87.961 15.8822 88.1836 15.8813 88.3569L15.4241 174.775C15.4228 175.023 15.5464 175.197 15.6702 175.321L42.1262 201.907L41.7261 277.529C40.4793 277.845 39.527 278.979 39.5198 280.341C39.5114 281.925 40.8243 283.245 42.418 283.253C44.0367 283.262 45.3635 281.956 45.3718 280.372C45.379 279.01 44.4388 277.866 43.1954 277.537L43.5966 201.692C43.5974 201.544 43.5734 201.37 43.4746 201.221C43.4499 201.171 43.4252 201.147 43.3756 201.097L16.8949 174.486L17.3492 88.6123L32.5445 73.662L54.2844 73.777C54.6473 75.7846 56.4073 77.3292 58.524 77.3404ZM49.8745 234.214C49.862 236.566 51.7942 238.508 54.1599 238.52C56.5506 238.533 58.4783 236.612 58.4907 234.259C58.5019 232.155 56.9673 230.364 54.9521 230.006L55.257 172.361C55.2581 172.163 55.1843 171.989 55.0355 171.865L29.3229 146.001L29.5697 99.3495L41.811 87.3055L76.9982 87.4917L119.361 134.071C119.51 134.245 119.733 134.32 119.933 134.322L178.951 134.634C179.269 135.874 180.409 136.796 181.779 136.803C183.373 136.811 184.699 135.531 184.708 133.921C184.716 132.337 183.403 131.017 181.81 131.009C180.44 131.002 179.29 131.912 178.959 133.173L120.214 132.862L77.9009 86.3326C77.8267 86.2332 77.7026 86.1582 77.5536 86.0831C77.479 86.058 77.4043 86.0576 77.3296 86.0572L41.5945 85.8682C41.4452 85.8426 41.2708 85.8664 41.0959 85.9646C41.0708 86.014 41.0208 86.0385 40.9958 86.0631L28.3289 98.5258C28.2037 98.649 28.103 98.8465 28.102 99.0446L27.8523 146.24C27.8266 146.389 27.8755 146.562 27.9743 146.711C27.999 146.761 28.0237 146.786 28.0733 146.836L53.7861 172.675L53.4827 230.023C51.4639 230.334 49.8856 232.109 49.8745 234.214ZM151.941 123.348C150.735 125.397 151.444 128.001 153.504 129.2C155.565 130.4 158.183 129.72 159.39 127.671C160.47 125.844 160.034 123.564 158.447 122.243L159.779 119.972L189.712 120.13C190.029 121.37 191.169 122.317 192.514 122.324C194.133 122.333 195.435 121.027 195.443 119.418C195.452 117.833 194.164 116.514 192.545 116.505C191.2 116.498 190.05 117.433 189.719 118.669L159.413 118.509C159.214 118.483 159.014 118.557 158.839 118.729C158.789 118.778 158.764 118.828 158.739 118.877L157.181 121.494C155.267 120.79 153.047 121.521 151.941 123.348ZM46.5828 98.5481C44.217 98.5356 42.2644 100.457 42.252 102.809C42.2394 105.186 44.1717 107.103 46.5374 107.116C48.6791 107.127 50.4553 105.601 50.8145 103.597L72.1061 103.71L119.841 151.679C120.014 151.854 120.238 151.904 120.412 151.881L138.99 151.979C139.307 153.243 140.447 154.166 141.817 154.173C143.411 154.181 144.738 152.876 144.746 151.291C144.755 149.682 143.442 148.387 141.848 148.379C140.478 148.371 139.328 149.282 138.997 150.518L120.669 150.421L72.9841 102.501C72.8849 102.426 72.7858 102.327 72.6367 102.276C72.5621 102.251 72.5123 102.251 72.4376 102.251L50.8222 102.136C50.4842 100.129 48.7244 98.5594 46.5828 98.5481ZM121.012 76.3091C118.621 76.2964 116.693 78.2177 116.681 80.57C116.668 82.9472 118.576 84.8639 120.966 84.8766C123.083 84.8878 124.859 83.3619 125.218 81.3581L330.39 82.4435C330.707 83.6833 331.848 84.6303 333.217 84.6375C334.811 84.646 336.138 83.3406 336.146 81.7311C336.155 80.1463 334.842 78.827 333.248 78.8185C331.878 78.8113 330.728 79.7462 330.398 80.9825L125.226 79.8971C124.888 77.8896 123.128 76.3203 121.012 76.3091ZM33.7251 208.252C33.7376 205.899 31.8054 203.958 29.4397 203.945C27.0739 203.933 25.1213 205.854 25.1089 208.206C25.0976 210.336 26.6323 212.102 28.6724 212.459L27.8215 373.311C26.5498 373.626 25.6223 374.76 25.6151 376.122C25.6068 377.707 26.8947 379.026 28.5134 379.035C30.1072 379.043 31.4339 377.738 31.4423 376.153C31.4495 374.791 30.5342 373.647 29.2658 373.319L30.1168 212.467C32.1606 212.131 33.7139 210.381 33.7251 208.252ZM83.5929 276.661C85.6661 275.484 86.3772 272.888 85.1927 270.826C84.5264 269.683 83.4346 268.935 82.2154 268.73L82.5145 212.199C82.5404 212.001 82.4669 211.778 82.2935 211.604C82.2438 211.579 82.1943 211.529 82.1446 211.504L68.5644 203.607L68.7513 168.272C68.7521 168.124 68.7281 167.95 68.6293 167.801C68.6046 167.752 68.5798 167.727 68.5303 167.677L42.7185 141.713L42.8375 119.23L64.5774 119.345C64.9154 121.352 66.6753 122.897 68.817 122.908C71.1827 122.921 73.1352 121.024 73.1477 118.647C73.1602 116.295 71.228 114.353 68.8623 114.341C66.7207 114.329 64.9445 115.855 64.5851 117.884L42.0981 117.765C41.6499 117.762 41.3741 118.108 41.3722 118.479L41.2477 142.003C41.2464 142.25 41.345 142.449 41.4937 142.573L67.2809 168.487L67.0929 204.02C67.0913 204.318 67.2395 204.541 67.4631 204.641L81.0433 212.563L80.7463 268.698C80.2477 268.794 79.7737 268.965 79.3241 269.21C77.4756 270.29 76.6921 272.465 77.404 274.4L59.0951 284.778C58.8204 284.925 58.7195 285.172 58.7181 285.42L58.5093 324.89C57.2376 325.205 56.3102 326.339 56.303 327.701C56.2946 329.286 57.6075 330.605 59.2013 330.613C60.8199 330.622 62.1218 329.316 62.1302 327.732C62.1374 326.37 61.222 325.226 59.9537 324.897L60.1603 285.848L78.1196 275.642C79.456 277.234 81.7445 277.716 83.5929 276.661ZM17.0171 57.2367C14.6514 57.2241 12.6988 59.1453 12.6863 61.4976C12.6739 63.85 14.6061 65.7917 16.9718 65.8042C19.0885 65.8154 20.8647 64.2895 21.2241 62.2609L82.8079 62.5867L114.438 99.5757C114.612 99.7747 114.811 99.85 115.01 99.8511L202.268 100.313C202.388 101.13 202.807 101.95 203.451 102.622C204.987 104.116 207.277 104.301 208.977 103.097L230.578 124.829C230.751 125.003 230.975 125.054 231.149 125.054L268.603 125.253C268.92 126.492 270.06 127.439 271.43 127.447C273.024 127.455 274.351 126.15 274.359 124.54C274.368 122.955 273.055 121.636 271.461 121.628C270.091 121.62 268.941 122.555 268.61 123.792L231.406 123.595L210.004 102.087C211.208 100.41 211.071 98.1059 209.56 96.5874C207.85 94.8945 205.211 94.8805 203.458 96.5551C202.807 97.2202 202.405 98.0105 202.251 98.8516L115.341 98.3918L83.7355 61.4278C83.6613 61.3283 83.5373 61.2286 83.3632 61.1782C83.2887 61.153 83.239 61.128 83.1394 61.1275L21.2318 60.8C20.8938 58.7924 19.1338 57.2479 17.0171 57.2367Z"
            fill="black" fill-opacity="0.75" />
    </g>
</svg>
    