<svg width="1440" height="765" viewBox="0 0 1440 765" fill="none" xmlns="http://www.w3.org/2000/svg">
<rect width="1440" height="765" fill="white"/>
<mask id="mask0_123_56" style="mask-type:luminance" maskUnits="userSpaceOnUse" x="0" y="0" width="326" height="325">
<path d="M1.71021 0L-6.75309e-05 323.288L323.558 325L325.268 1.7117L1.71021 0Z" fill="white"/>
</mask>
<g mask="url(#mask0_123_56)">
<path d="M47.5237 20.3404C49.9144 20.3531 51.8419 18.4566 51.8545 16.0794C51.867 13.7271 49.9597 11.7855 47.5691 11.7729C45.4523 11.7617 43.6761 13.2875 43.3168 15.3162L21.2532 15.1994C21.029 15.1983 20.8293 15.2962 20.704 15.4442L5.10815 30.7886C4.93291 30.961 4.88193 31.1836 4.88101 31.3569L4.42384 117.775C4.42253 118.023 4.54613 118.197 4.66998 118.321L31.1259 144.907L30.7259 220.529C29.479 220.845 28.5267 221.979 28.5195 223.341C28.5111 224.925 29.824 226.245 31.4178 226.253C33.0364 226.262 34.3632 224.956 34.3716 223.372C34.3788 222.01 33.4385 220.866 32.1951 220.537L32.5964 144.692C32.5971 144.544 32.5732 144.37 32.4743 144.221C32.4497 144.171 32.4249 144.147 32.3754 144.097L5.89466 117.486L6.34895 31.6123L21.5443 16.662L43.2841 16.777C43.6471 18.7846 45.407 20.3292 47.5237 20.3404ZM38.8742 177.214C38.8618 179.566 40.794 181.508 43.1597 181.52C45.5503 181.533 47.478 179.612 47.4905 177.259C47.5016 175.155 45.9671 173.364 43.9518 173.006L44.2568 115.361C44.2578 115.163 44.184 114.989 44.0353 114.865L18.3226 89.0005L18.5694 42.3495L30.8108 30.3055L65.998 30.4917L108.361 77.0709C108.509 77.245 108.733 77.3205 108.932 77.3215L167.951 77.6338C168.268 78.8736 169.409 79.7958 170.779 79.8031C172.372 79.8115 173.699 78.5309 173.708 76.9214C173.716 75.3366 172.403 74.0173 170.809 74.0088C169.44 74.0016 168.289 74.9117 167.959 76.1728L109.214 75.8621L66.9006 29.3326C66.8265 29.2332 66.7023 29.1582 66.5533 29.0831C66.4787 29.058 66.404 29.0576 66.3293 29.0572L30.5943 28.8682C30.445 28.8426 30.2705 28.8664 30.0957 28.9646C30.0705 29.014 30.0206 29.0385 29.9956 29.0631L17.3286 41.5258C17.2034 41.649 17.1028 41.8465 17.1017 42.0446L16.8521 89.2404C16.8264 89.3888 16.8753 89.5624 16.9741 89.7115C16.9987 89.7612 17.0235 89.786 17.073 89.8358L42.7858 115.675L42.4825 173.023C40.4637 173.334 38.8854 175.109 38.8742 177.214ZM140.941 66.3478C139.735 68.3967 140.443 71.0005 142.504 72.2C144.565 73.3995 147.183 72.72 148.389 70.6711C149.47 68.8444 149.034 66.564 147.447 65.2432L148.779 62.9721L178.711 63.1304C179.029 64.3702 180.169 65.3172 181.514 65.3243C183.133 65.3329 184.434 64.0274 184.443 62.4179C184.451 60.8331 183.163 59.5139 181.545 59.5054C180.2 59.4982 179.049 60.4331 178.719 61.6695L148.413 61.5092C148.214 61.4834 148.014 61.5566 147.839 61.729C147.789 61.7782 147.764 61.8276 147.739 61.877L146.181 64.4936C144.267 63.7901 142.047 64.5213 140.941 66.3478ZM35.5825 41.5481C33.2168 41.5356 31.2642 43.4567 31.2517 45.8091C31.2392 48.1862 33.1715 50.1031 35.5372 50.1156C37.6788 50.127 39.455 48.6011 39.8143 46.5972L61.1059 46.7099L108.841 94.6795C109.014 94.8537 109.238 94.9044 109.412 94.8806L127.989 94.9789C128.307 96.2434 129.447 97.1657 130.817 97.1729C132.411 97.1814 133.737 95.876 133.746 94.2912C133.754 92.6817 132.441 91.3871 130.847 91.3787C129.478 91.3714 128.327 92.2816 127.997 93.5179L109.669 93.421L61.9839 45.5012C61.8847 45.4264 61.7856 45.3268 61.6364 45.2765C61.5619 45.2513 61.512 45.2511 61.4373 45.2507L39.822 45.1363C39.484 43.1288 37.7241 41.5594 35.5825 41.5481ZM110.011 19.3091C107.621 19.2964 105.693 21.2177 105.68 23.57C105.668 25.9472 107.575 27.8639 109.966 27.8766C112.083 27.8878 113.859 26.3619 114.218 24.3581L319.39 25.4435C319.707 26.6833 320.847 27.6303 322.217 27.6375C323.811 27.646 325.138 26.3406 325.146 24.7311C325.154 23.1463 323.842 21.827 322.248 21.8185C320.878 21.8113 319.728 22.7462 319.397 23.9825L114.226 22.8971C113.888 20.8896 112.128 19.3203 110.011 19.3091ZM22.7249 151.252C22.7373 148.899 20.8052 146.958 18.4394 146.945C16.0737 146.933 14.1211 148.854 14.1086 151.206C14.0974 153.336 15.632 155.102 17.6722 155.459L16.8213 316.311C15.5495 316.626 14.6221 317.76 14.6149 319.122C14.6065 320.707 15.8945 322.026 17.5132 322.035C19.1069 322.043 20.4337 320.738 20.4421 319.153C20.4493 317.791 19.5339 316.647 18.2656 316.319L19.1165 155.467C21.1604 155.131 22.7136 153.381 22.7249 151.252ZM72.5927 219.661C74.6659 218.484 75.3769 215.888 74.1925 213.826C73.5261 212.683 72.4344 211.935 71.2152 211.73L71.5142 155.199C71.5402 155.001 71.4667 154.778 71.2933 154.604C71.2436 154.579 71.194 154.529 71.1444 154.504L57.5641 146.607L57.751 111.272C57.7518 111.124 57.7278 110.95 57.629 110.801C57.6044 110.752 57.5796 110.727 57.5301 110.677L31.7183 84.7132L31.8372 62.2296L53.5771 62.3446C53.9151 64.3522 55.6751 65.8967 57.8167 65.9081C60.1824 65.9206 62.1349 64.0242 62.1475 61.6471C62.1599 59.2947 60.2278 57.3531 57.862 57.3405C55.7204 57.3292 53.9442 58.8551 53.5848 60.8837L31.0979 60.7647C30.6497 60.7624 30.3739 61.1076 30.3719 61.479L30.2475 85.0026C30.2462 85.2502 30.3447 85.4488 30.4935 85.5734L56.2806 111.487L56.0926 147.02C56.0911 147.318 56.2393 147.541 56.4629 147.641L70.043 155.563L69.7461 211.698C69.2475 211.794 68.7734 211.965 68.3239 212.21C66.4753 213.29 65.6918 215.465 66.4038 217.4L48.0948 227.778C47.8201 227.925 47.7192 228.172 47.7179 228.42L47.5091 267.89C46.2374 268.205 45.3099 269.339 45.3027 270.701C45.2944 272.286 46.6073 273.605 48.201 273.613C49.8197 273.622 51.1215 272.316 51.1299 270.732C51.1371 269.37 50.2218 268.226 48.9534 267.897L49.16 228.848L67.1194 218.642C68.4557 220.234 70.7443 220.716 72.5927 219.661ZM6.01687 0.236658C3.65113 0.224143 1.69852 2.14528 1.68608 4.49763C1.67363 6.84999 3.60581 8.79168 5.97155 8.80419C8.08825 8.81539 9.86446 7.28952 10.2238 5.26091L71.8077 5.5867L103.438 42.5757C103.612 42.7747 103.81 42.85 104.01 42.8511L191.268 43.3127C191.388 44.1305 191.807 44.9499 192.451 45.6218C193.987 47.1157 196.277 47.3012 197.977 46.0968L219.578 67.8286C219.751 68.0029 219.975 68.0536 220.149 68.0545L257.603 68.2526C257.92 69.4924 259.06 70.4394 260.43 70.4467C262.024 70.4551 263.35 69.1497 263.359 67.5402C263.367 65.9555 262.054 64.6361 260.461 64.6277C259.091 64.6204 257.941 65.5553 257.61 66.7917L220.406 66.5949L199.003 45.087C200.208 43.4095 200.07 41.1059 198.559 39.5874C196.85 37.8945 194.21 37.8805 192.458 39.5551C191.807 40.2202 191.405 41.0105 191.251 41.8516L104.341 41.3918L72.7352 4.42778C72.661 4.32834 72.537 4.22863 72.363 4.17819C72.2884 4.15303 72.2387 4.128 72.1391 4.12748L10.2316 3.79997C9.89354 1.79243 8.13358 0.247856 6.01687 0.236658Z" fill="black" fill-opacity="0.75"/>
</g>
<mask id="mask1_123_56" style="mask-type:luminance" maskUnits="userSpaceOnUse" x="1076" y="400" width="363" height="362">
<path d="M1436.53 761.716L1438.43 401.907L1077.9 400L1076 759.809L1436.53 761.716Z" fill="white"/>
</mask>
<g mask="url(#mask1_123_56)">
<path d="M1385.48 739.077C1382.82 739.063 1380.67 741.174 1380.66 743.82C1380.64 746.438 1382.77 748.599 1385.43 748.613C1387.79 748.625 1389.77 746.927 1390.17 744.669L1414.75 744.799C1415 744.801 1415.23 744.691 1415.37 744.527L1432.74 727.449C1432.94 727.257 1433 727.01 1433 726.817L1433.51 630.636C1433.51 630.361 1433.37 630.167 1433.23 630.028L1403.75 600.439L1404.2 516.274C1405.59 515.923 1406.65 514.661 1406.66 513.145C1406.66 511.381 1405.2 509.913 1403.43 509.904C1401.62 509.894 1400.14 511.347 1400.13 513.111C1400.13 514.626 1401.17 515.9 1402.56 516.265L1402.11 600.678C1402.11 600.844 1402.14 601.037 1402.25 601.203C1402.28 601.258 1402.3 601.285 1402.36 601.341L1431.87 630.958L1431.36 726.532L1414.43 743.172L1390.21 743.043C1389.8 740.809 1387.84 739.09 1385.48 739.077ZM1395.12 564.483C1395.13 561.865 1392.98 559.704 1390.34 559.69C1387.68 559.676 1385.53 561.814 1385.52 564.432C1385.5 566.775 1387.21 568.768 1389.46 569.166L1389.12 633.323C1389.12 633.543 1389.2 633.737 1389.37 633.875L1418.02 662.661L1417.74 714.582L1404.1 727.987L1364.9 727.779L1317.69 675.938C1317.53 675.744 1317.28 675.66 1317.05 675.659L1251.29 675.311C1250.94 673.931 1249.67 672.905 1248.14 672.897C1246.37 672.887 1244.89 674.313 1244.88 676.104C1244.87 677.868 1246.33 679.336 1248.11 679.345C1249.63 679.353 1250.92 678.341 1251.28 676.937L1316.74 677.283L1363.89 729.069C1363.97 729.18 1364.11 729.263 1364.28 729.347C1364.36 729.375 1364.44 729.375 1364.53 729.376L1404.34 729.586C1404.51 729.615 1404.71 729.588 1404.9 729.479C1404.93 729.424 1404.98 729.397 1405.01 729.369L1419.13 715.499C1419.27 715.362 1419.38 715.142 1419.38 714.922L1419.66 662.394C1419.69 662.229 1419.63 662.036 1419.52 661.87C1419.49 661.815 1419.47 661.787 1419.41 661.732L1390.76 632.973L1391.1 569.147C1393.35 568.8 1395.11 566.825 1395.12 564.483ZM1281.39 687.872C1282.73 685.592 1281.94 682.694 1279.65 681.359C1277.35 680.024 1274.43 680.78 1273.09 683.06C1271.89 685.093 1272.37 687.631 1274.14 689.101L1272.66 691.629L1239.3 691.453C1238.95 690.073 1237.68 689.019 1236.18 689.011C1234.38 689.001 1232.93 690.454 1232.92 692.246C1232.91 694.009 1234.34 695.478 1236.15 695.487C1237.64 695.495 1238.93 694.455 1239.29 693.079L1273.06 693.257C1273.29 693.286 1273.51 693.204 1273.7 693.013C1273.76 692.958 1273.79 692.903 1273.81 692.848L1275.55 689.936C1277.68 690.719 1280.16 689.905 1281.39 687.872ZM1398.79 715.474C1401.42 715.488 1403.6 713.35 1403.61 710.732C1403.63 708.086 1401.47 705.953 1398.84 705.939C1396.45 705.926 1394.47 707.624 1394.07 709.854L1370.35 709.729L1317.16 656.34C1316.96 656.146 1316.71 656.09 1316.52 656.116L1295.82 656.007C1295.47 654.599 1294.2 653.573 1292.67 653.565C1290.89 653.555 1289.42 655.008 1289.41 656.772C1289.4 658.563 1290.86 660.004 1292.64 660.014C1294.16 660.022 1295.44 659.009 1295.81 657.633L1316.23 657.741L1369.37 711.074C1369.48 711.157 1369.59 711.268 1369.76 711.324C1369.84 711.352 1369.89 711.353 1369.98 711.353L1394.06 711.48C1394.44 713.715 1396.4 715.461 1398.79 715.474ZM1315.85 740.225C1318.52 740.239 1320.66 738.101 1320.68 735.482C1320.69 732.837 1318.57 730.703 1315.9 730.689C1313.55 730.677 1311.57 732.375 1311.17 734.605L1082.55 733.396C1082.2 732.016 1080.93 730.962 1079.4 730.954C1077.62 730.945 1076.15 732.397 1076.14 734.189C1076.13 735.953 1077.59 737.421 1079.37 737.43C1080.89 737.438 1082.17 736.398 1082.54 735.022L1311.16 736.231C1311.53 738.466 1313.49 740.212 1315.85 740.225ZM1413.11 593.378C1413.1 595.996 1415.25 598.157 1417.89 598.171C1420.52 598.185 1422.7 596.047 1422.71 593.429C1422.73 591.059 1421.02 589.093 1418.74 588.695L1419.69 409.673C1421.11 409.322 1422.14 408.06 1422.15 406.544C1422.16 404.78 1420.72 403.312 1418.92 403.302C1417.14 403.293 1415.66 404.746 1415.66 406.51C1415.65 408.025 1416.67 409.298 1418.08 409.664L1417.13 588.687C1414.86 589.06 1413.13 591.008 1413.11 593.378ZM1357.55 517.24C1355.24 518.551 1354.44 521.44 1355.76 523.735C1356.51 525.006 1357.72 525.839 1359.08 526.067L1358.75 588.984C1358.72 589.204 1358.8 589.453 1358.99 589.647C1359.05 589.675 1359.11 589.73 1359.16 589.758L1374.29 598.547L1374.08 637.873C1374.08 638.039 1374.11 638.232 1374.22 638.398C1374.25 638.453 1374.28 638.481 1374.33 638.536L1403.09 667.433L1402.96 692.456L1378.74 692.328C1378.36 690.094 1376.4 688.375 1374.01 688.362C1371.38 688.348 1369.2 690.459 1369.19 693.104C1369.17 695.722 1371.33 697.883 1373.96 697.897C1376.35 697.91 1378.33 696.212 1378.73 693.954L1403.78 694.087C1404.28 694.089 1404.59 693.705 1404.59 693.292L1404.73 667.111C1404.73 666.835 1404.62 666.614 1404.46 666.475L1375.72 637.634L1375.93 598.087C1375.93 597.756 1375.77 597.507 1375.52 597.396L1360.39 588.579L1360.72 526.103C1361.27 525.996 1361.8 525.806 1362.3 525.533C1364.36 524.331 1365.24 521.911 1364.44 519.757L1384.84 508.207C1385.15 508.043 1385.26 507.768 1385.26 507.493L1385.5 463.564C1386.91 463.213 1387.95 461.951 1387.95 460.435C1387.96 458.671 1386.5 457.203 1384.72 457.193C1382.92 457.184 1381.47 458.637 1381.46 460.401C1381.45 461.916 1382.47 463.19 1383.89 463.555L1383.66 507.016L1363.64 518.375C1362.16 516.603 1359.61 516.066 1357.55 517.24ZM1431.73 761.452C1434.37 761.466 1436.54 759.328 1436.56 756.71C1436.57 754.092 1434.42 751.931 1431.78 751.917C1429.42 751.905 1427.44 753.603 1427.04 755.861L1358.42 755.498L1323.18 714.33C1322.98 714.108 1322.76 714.025 1322.54 714.023L1225.31 713.509C1225.18 712.599 1224.71 711.687 1223.99 710.939C1222.28 709.276 1219.73 709.07 1217.84 710.41L1193.77 686.223C1193.57 686.03 1193.32 685.973 1193.13 685.972L1151.4 685.751C1151.04 684.371 1149.77 683.317 1148.25 683.309C1146.47 683.3 1144.99 684.753 1144.98 686.544C1144.97 688.308 1146.44 689.776 1148.21 689.786C1149.74 689.794 1151.02 688.753 1151.39 687.377L1192.84 687.597L1216.69 711.534C1215.35 713.401 1215.5 715.965 1217.19 717.655C1219.09 719.539 1222.03 719.555 1223.99 717.691C1224.71 716.951 1225.16 716.071 1225.33 715.135L1322.17 715.647L1357.39 756.787C1357.47 756.898 1357.61 757.009 1357.8 757.065C1357.89 757.093 1357.94 757.121 1358.05 757.122L1427.03 757.487C1427.41 759.721 1429.37 761.44 1431.73 761.452Z" fill="black" fill-opacity="0.75"/>
</g>
</svg>
